<svg xmlns="http://www.w3.org/2000/svg" xmlns:xlink="http://www.w3.org/1999/xlink" width="1189" zoomAndPan="magnify" viewBox="0 0 891.75 538.499984" height="718" preserveAspectRatio="xMidYMid meet" version="1.0"><defs><clipPath id="id1"><path d="M 34 2.835938 L 871 2.835938 L 871 455 L 34 455 Z M 34 2.835938 " clip-rule="nonzero"/></clipPath><clipPath id="id2"><path d="M 615 44 L 891.210938 44 L 891.210938 264 L 615 264 Z M 615 44 " clip-rule="nonzero"/></clipPath><clipPath id="id3"><path d="M 626 60 L 891.210938 60 L 891.210938 264 L 626 264 Z M 626 60 " clip-rule="nonzero"/></clipPath><clipPath id="id4"><path d="M 271 513.554688 L 331 513.554688 L 331 534.90625 L 271 534.90625 Z M 271 513.554688 " clip-rule="nonzero"/></clipPath></defs><g clip-path="url(#id1)"><path fill="#ede9ff" d="M 859.757812 164.695312 C 856.953125 155.292969 853.546875 146.101562 849.460938 137.167969 C 830.667969 96.121094 798.652344 64.347656 762.71875 43.175781 C 719.117188 17.480469 668.042969 2.957031 619.042969 2.96875 C 584.492188 2.976562 544.789062 8 512.59375 23.371094 C 484.511719 36.777344 458.761719 64.152344 426.550781 61.863281 C 410.167969 60.699219 395.195312 51.515625 380.125 44.070312 C 329.554688 19.101562 268.160156 9.886719 214.808594 28.121094 C 70.257812 77.527344 27.296875 261.316406 35.921875 415.03125 C 36.601562 427.175781 38.128906 440.730469 46.417969 448.304688 C 53.65625 454.914062 63.769531 454.824219 73.007812 454.421875 C 142.902344 451.382812 212.800781 448.765625 282.710938 446.09375 C 365.632812 442.921875 448.554688 439.238281 531.503906 436.988281 C 573.050781 435.863281 614.617188 435.257812 656.175781 435.746094 C 690.828125 436.152344 724.933594 439.121094 759.578125 440.402344 C 790.554688 441.546875 824.796875 433.746094 843.792969 405.628906 C 855.585938 388.175781 859.644531 365.59375 862.886719 343.8125 C 871.726562 284.402344 876.492188 220.847656 859.757812 164.695312 " fill-opacity="1" fill-rule="nonzero"/></g><path fill="#311e69" d="M 793.898438 248.019531 C 791.75 246.269531 788.59375 246.585938 786.84375 248.734375 L 752.179688 291.199219 C 752.261719 269.476562 753.808594 249.871094 758.175781 239.136719 C 759.21875 236.578125 757.988281 233.65625 755.421875 232.609375 C 752.855469 231.566406 749.933594 232.800781 748.890625 235.359375 C 743.132812 249.503906 741.773438 276.519531 742.277344 304.355469 C 742.160156 305.007812 742.175781 305.671875 742.316406 306.3125 C 742.429688 311.886719 742.621094 317.484375 742.863281 323.007812 C 729.933594 310.828125 704.503906 281.988281 705.511719 244.332031 C 705.585938 241.566406 703.40625 239.265625 700.636719 239.191406 C 697.90625 239.109375 695.5625 241.296875 695.488281 244.0625 C 694.078125 296.871094 737.675781 332.355469 743.578125 336.910156 C 745.375 367.277344 748.289062 392.542969 748.554688 394.808594 C 748.855469 397.359375 751.019531 399.234375 753.527344 399.234375 C 753.722656 399.234375 753.917969 399.222656 754.113281 399.203125 C 756.867188 398.878906 758.835938 396.394531 758.511719 393.644531 C 758.429688 392.914062 753.355469 348.941406 752.347656 306.84375 L 794.613281 255.070312 C 796.359375 252.921875 796.042969 249.765625 793.898438 248.019531 " fill-opacity="1" fill-rule="nonzero"/><path fill="#d8e7eb" d="M 818.632812 394.222656 L 688.433594 394.222656 C 688.433594 394.222656 683.957031 490.671875 753.535156 490.671875 C 823.113281 490.671875 818.632812 394.222656 818.632812 394.222656 " fill-opacity="1" fill-rule="nonzero"/><path fill="#c1d6db" d="M 818.632812 394.222656 L 777.625 394.222656 C 777.46875 400.746094 776.933594 406.5625 775.636719 408.859375 C 772.007812 415.292969 778.933594 422.339844 781.902344 440.417969 C 784.867188 458.496094 772.671875 466.160156 759.152344 468.914062 C 745.636719 471.671875 752.558594 475.351562 748.933594 484.851562 C 747.953125 487.414062 746.058594 489.011719 743.8125 489.984375 C 746.882812 490.429688 750.117188 490.671875 753.535156 490.671875 C 823.113281 490.671875 818.632812 394.222656 818.632812 394.222656 " fill-opacity="1" fill-rule="nonzero"/><path fill="#311e69" d="M 818.632812 394.222656 C 818.632812 399.28125 789.484375 403.386719 753.535156 403.386719 C 717.582031 403.386719 688.433594 399.28125 688.433594 394.222656 C 688.433594 389.164062 717.582031 385.066406 753.535156 385.066406 C 789.484375 385.066406 818.632812 389.164062 818.632812 394.222656 " fill-opacity="1" fill-rule="nonzero"/><g clip-path="url(#id2)"><path fill="#4cb4d4" d="M 634.617188 220.332031 C 634.617188 220.332031 594.519531 126.207031 630.800781 76.414062 C 667.082031 26.625 803.617188 40.324219 832.261719 76.414062 C 860.902344 112.503906 891.457031 163.078125 891.457031 200.292969 C 891.457031 237.511719 763.515625 276.628906 705.273438 258.503906 C 647.035156 240.371094 634.617188 220.332031 634.617188 220.332031 " fill-opacity="1" fill-rule="nonzero"/></g><g clip-path="url(#id3)"><path fill="#2e88bf" d="M 891.457031 200.292969 C 891.457031 163.078125 860.902344 112.503906 832.261719 76.414062 C 827.527344 70.453125 819.835938 65.105469 810.148438 60.546875 C 820.660156 73.589844 833 94.492188 820.804688 110.339844 C 801.707031 135.148438 787.316406 118.007812 780.703125 126.558594 C 773.144531 136.339844 809.347656 164.726562 772.109375 175.226562 C 734.871094 185.722656 707.183594 179.042969 707.183594 179.042969 C 707.183594 179.042969 711.933594 182.867188 670.898438 195.261719 C 652.554688 200.808594 637.253906 197.960938 626.113281 195.929688 C 630.507812 210.679688 634.617188 220.332031 634.617188 220.332031 C 634.617188 220.332031 647.035156 240.371094 705.273438 258.503906 C 763.515625 276.628906 891.457031 237.511719 891.457031 200.292969 " fill-opacity="1" fill-rule="nonzero"/></g><path fill="#b1a9ff" d="M 158.597656 399.507812 L 32.15625 399.507812 C 32.15625 399.507812 27.808594 472.789062 95.378906 472.789062 C 162.945312 472.789062 158.597656 399.507812 158.597656 399.507812 " fill-opacity="1" fill-rule="nonzero"/><path fill="#614cd4" d="M 158.597656 399.507812 L 118.773438 399.507812 C 118.621094 404.464844 118.101562 408.882812 116.84375 410.625 C 113.320312 415.515625 120.042969 420.867188 122.925781 434.605469 C 125.804688 448.34375 113.960938 454.164062 100.835938 456.257812 C 87.707031 458.355469 94.429688 461.148438 90.910156 468.363281 C 89.957031 470.316406 88.117188 471.527344 85.9375 472.273438 C 88.917969 472.605469 92.058594 472.789062 95.378906 472.789062 C 162.945312 472.789062 158.597656 399.507812 158.597656 399.507812 " fill-opacity="1" fill-rule="nonzero"/><path fill="#311e69" d="M 158.597656 399.507812 C 158.597656 403.347656 130.289062 406.464844 95.378906 406.464844 C 60.464844 406.464844 32.15625 403.347656 32.15625 399.507812 C 32.15625 395.664062 60.464844 392.546875 95.378906 392.546875 C 130.289062 392.546875 158.597656 395.664062 158.597656 399.507812 " fill-opacity="1" fill-rule="nonzero"/><path fill="#4cb4d4" d="M 61.8125 401.816406 C 61.8125 401.816406 0.328125 242.128906 23.847656 209.761719 C 47.375 177.390625 91.5625 401.816406 91.5625 401.816406 L 61.8125 401.816406 " fill-opacity="1" fill-rule="nonzero"/><path fill="#2e88bf" d="M 91.5625 401.816406 C 91.5625 401.816406 50.171875 191.414062 26.179688 207.414062 C 27.03125 211.199219 28.394531 216.617188 30.519531 224.339844 C 39.164062 255.746094 52.132812 291.203125 59.695312 321.941406 C 65.6875 346.285156 74.511719 381.683594 78.523438 401.816406 L 91.5625 401.816406 " fill-opacity="1" fill-rule="nonzero"/><path fill="#4cb4d4" d="M 82.550781 401.816406 C 82.550781 401.816406 56.640625 279.671875 86.800781 254.386719 C 116.953125 229.105469 114.785156 401.816406 114.785156 401.816406 L 82.550781 401.816406 " fill-opacity="1" fill-rule="nonzero"/><path fill="#2e88bf" d="M 92.351562 251.773438 C 92.667969 254.484375 92.96875 258.183594 93.222656 263.21875 C 94.292969 284 98.257812 372.445312 98.316406 401.816406 L 114.785156 401.816406 C 114.785156 401.816406 116.675781 250.148438 92.351562 251.773438 " fill-opacity="1" fill-rule="nonzero"/><path fill="#4cb4d4" d="M 101.347656 401.816406 C 101.347656 401.816406 109.015625 275.722656 145.117188 260.050781 C 181.222656 244.378906 132.253906 401.816406 132.253906 401.816406 L 101.347656 401.816406 " fill-opacity="1" fill-rule="nonzero"/><path fill="#2e88bf" d="M 122.917969 401.816406 L 132.253906 401.816406 C 132.253906 401.816406 177.871094 255.144531 148.578125 259.035156 C 148.5625 261.410156 148.617188 264.863281 148.84375 269.835938 C 149.445312 283.226562 126.179688 346.164062 125.277344 361.804688 C 124.636719 372.824219 123.214844 391.921875 122.917969 401.816406 " fill-opacity="1" fill-rule="nonzero"/><path fill="#b5b5b5" d="M 246.332031 156.882812 C 246.332031 156.882812 250.859375 146.730469 242.535156 144.894531 C 234.214844 143.058594 222.457031 153.949219 228.210938 161.777344 C 233.964844 169.609375 246.332031 156.882812 246.332031 156.882812 " fill-opacity="1" fill-rule="nonzero"/><path fill="#9e9e9e" d="M 226.804688 156.015625 C 226.511719 157.96875 226.871094 159.953125 228.210938 161.777344 C 233.964844 169.609375 246.332031 156.882812 246.332031 156.882812 C 246.332031 156.882812 248.066406 152.980469 247.40625 149.574219 C 245.273438 151.175781 234.09375 159.125 226.804688 156.015625 " fill-opacity="1" fill-rule="nonzero"/><path fill="#b5b5b5" d="M 262.617188 171.8125 L 264.40625 169.121094 C 264.40625 169.121094 268.113281 165.449219 266.464844 159.457031 C 264.820312 153.457031 255.210938 150.523438 245.261719 153.457031 C 235.3125 156.394531 229.804688 159.945312 231.394531 171.8125 C 232.988281 183.679688 240.800781 187.167969 249.015625 183.160156 C 257.226562 179.152344 262.617188 171.8125 262.617188 171.8125 " fill-opacity="1" fill-rule="nonzero"/><path fill="#c3d4d8" d="M 592.941406 247.664062 C 592.925781 220.289062 563.746094 210.566406 563.746094 210.566406 L 564.035156 253.667969 C 564.035156 253.667969 575.28125 284.695312 584.824219 287.234375 C 586.433594 287.660156 592.960938 273.152344 592.941406 247.664062 " fill-opacity="1" fill-rule="nonzero"/><path fill="#c3d4d8" d="M 483.648438 477.785156 L 496.308594 477.785156 L 496.308594 306.179688 L 483.648438 306.179688 L 483.648438 477.785156 " fill-opacity="1" fill-rule="nonzero"/><path fill="#311e69" d="M 502.132812 284.128906 L 502.132812 303.992188 C 502.132812 307.097656 497.25 309.816406 490.789062 310.015625 C 483.710938 310.234375 477.824219 307.542969 477.824219 304.191406 L 477.824219 284.128906 C 477.824219 283.152344 479.472656 282.359375 481.507812 282.359375 L 498.453125 282.359375 C 500.484375 282.359375 502.132812 283.152344 502.132812 284.128906 " fill-opacity="1" fill-rule="nonzero"/><path fill="#311e69" d="M 479.652344 481.636719 L 500.304688 481.636719 L 500.304688 478.148438 C 500.304688 477.234375 499.566406 476.496094 498.65625 476.496094 L 481.300781 476.496094 C 480.386719 476.496094 479.652344 477.234375 479.652344 478.148438 L 479.652344 481.636719 " fill-opacity="1" fill-rule="nonzero"/><path fill="#311e69" d="M 216.253906 386.234375 L 225.621094 386.234375 L 203.183594 257.488281 C 202.796875 255.285156 200.878906 253.671875 198.636719 253.671875 C 195.773438 253.671875 193.601562 256.253906 194.09375 259.074219 L 216.253906 386.234375 " fill-opacity="1" fill-rule="nonzero"/><path fill="#311e69" d="M 160.683594 386.234375 L 170.046875 386.234375 L 147.613281 257.488281 C 147.230469 255.285156 145.3125 253.671875 143.066406 253.671875 C 140.203125 253.671875 138.03125 256.253906 138.523438 259.074219 L 160.683594 386.234375 " fill-opacity="1" fill-rule="nonzero"/><path fill="#311e69" d="M 292.59375 391.328125 L 283.230469 391.210938 L 304.097656 520.21875 C 304.457031 522.429688 306.355469 524.066406 308.597656 524.09375 C 311.464844 524.125 313.667969 521.570312 313.207031 518.75 L 292.59375 391.328125 " fill-opacity="1" fill-rule="nonzero"/><path fill="#311e69" d="M 237.648438 391.328125 L 228.285156 391.210938 L 249.152344 520.21875 C 249.511719 522.429688 251.410156 524.066406 253.652344 524.09375 C 256.515625 524.125 258.71875 521.570312 258.265625 518.75 L 237.648438 391.328125 " fill-opacity="1" fill-rule="nonzero"/><path fill="#311e69" d="M 161.308594 391.328125 L 170.671875 391.210938 L 149.800781 520.21875 C 149.441406 522.429688 147.546875 524.066406 145.304688 524.09375 C 142.441406 524.125 140.238281 521.570312 140.695312 518.75 L 161.308594 391.328125 " fill-opacity="1" fill-rule="nonzero"/><path fill="#311e69" d="M 216.253906 391.328125 L 225.621094 391.210938 L 204.75 520.21875 C 204.390625 522.429688 202.492188 524.066406 200.25 524.09375 C 197.386719 524.125 195.179688 521.570312 195.640625 518.75 L 216.253906 391.328125 " fill-opacity="1" fill-rule="nonzero"/><path fill="#311e69" d="M 148.820312 280.917969 L 203.347656 280.917969 L 203.347656 271.769531 L 148.820312 271.769531 L 148.820312 280.917969 " fill-opacity="1" fill-rule="nonzero"/><path fill="#311e69" d="M 158.8125 430.160156 L 292.738281 430.160156 L 292.738281 421.007812 L 158.8125 421.007812 L 158.8125 430.160156 " fill-opacity="1" fill-rule="nonzero"/><path fill="#311e69" d="M 160.996094 392.199219 L 292.738281 392.199219 L 292.738281 384.355469 C 292.738281 382.3125 291.082031 380.65625 289.035156 380.65625 L 160.996094 380.65625 L 160.996094 392.199219 " fill-opacity="1" fill-rule="nonzero"/><path fill="#c3d4d8" d="M 265.015625 477.785156 L 277.675781 477.785156 L 277.675781 306.179688 L 265.015625 306.179688 L 265.015625 477.785156 " fill-opacity="1" fill-rule="nonzero"/><path fill="#311e69" d="M 283.5 284.128906 L 283.5 303.992188 C 283.5 307.097656 278.613281 309.816406 272.152344 310.015625 C 265.078125 310.234375 259.191406 307.542969 259.191406 304.191406 L 259.191406 284.128906 C 259.191406 283.152344 260.839844 282.359375 262.871094 282.359375 L 279.820312 282.359375 C 281.855469 282.359375 283.5 283.152344 283.5 284.128906 " fill-opacity="1" fill-rule="nonzero"/><path fill="#311e69" d="M 261.019531 481.636719 L 281.671875 481.636719 L 281.671875 478.148438 C 281.671875 477.234375 280.9375 476.496094 280.023438 476.496094 L 262.667969 476.496094 C 261.757812 476.496094 261.019531 477.234375 261.019531 478.148438 L 261.019531 481.636719 " fill-opacity="1" fill-rule="nonzero"/><path fill="#ad263d" d="M 356.195312 485.636719 C 356.195312 485.636719 358.601562 491.449219 361.632812 496.191406 C 362.953125 498.257812 366.800781 499.789062 372.109375 501.980469 C 374.609375 504.132812 377.058594 506.898438 374.359375 507.769531 C 369.734375 509.257812 342.570312 509.34375 340.007812 504.90625 C 339.148438 503.417969 338.0625 502.242188 336.855469 501.332031 C 340.464844 496.035156 336.429688 489.183594 336.855469 484.394531 L 356.195312 485.636719 " fill-opacity="1" fill-rule="nonzero"/><path fill="#311e69" d="M 340.007812 504.90625 C 342.410156 509.066406 359.046875 490.246094 370 499.695312 C 371.921875 501.355469 373.941406 502.894531 376.195312 504.066406 C 383.539062 507.878906 390.9375 512.128906 391.246094 514.515625 C 391.855469 519.238281 342.433594 519.21875 334.207031 514.664062 C 329.910156 512.28125 332.898438 507.132812 336.855469 501.332031 C 338.0625 502.242188 339.148438 503.417969 340.007812 504.90625 " fill-opacity="1" fill-rule="nonzero"/><path fill="#ad263d" d="M 193.757812 342.0625 C 193.757812 342.0625 190.945312 381.253906 229.046875 382.882812 C 267.152344 384.511719 291.695312 379.777344 299.789062 383.199219 C 307.882812 386.621094 328.382812 470.445312 334.121094 489.328125 C 340.359375 509.878906 352.625 498.835938 359.136719 491.84375 C 365.792969 484.695312 378.199219 391.613281 368.414062 353.773438 C 358.621094 315.933594 310.878906 304.125 266.898438 307.761719 C 217.550781 311.839844 192.984375 334.835938 193.757812 342.0625 " fill-opacity="1" fill-rule="nonzero"/><path fill="#d95f76" d="M 266.898438 307.761719 C 294.804688 305.453125 324.21875 309.378906 344.496094 322.214844 C 340.140625 323.511719 333.621094 326.410156 333.128906 332.285156 C 332.664062 337.804688 307.515625 363.390625 288.578125 381.933594 C 276.222656 382.003906 256.039062 384.039062 229.046875 382.882812 C 190.945312 381.253906 193.757812 342.0625 193.757812 342.0625 C 192.980469 334.835938 217.550781 311.839844 266.898438 307.761719 " fill-opacity="1" fill-rule="nonzero"/><path fill="#311e69" d="M 325.199219 456.863281 L 364.84375 434.019531 L 318.074219 431.296875 C 320.550781 439.882812 322.972656 448.6875 325.199219 456.863281 " fill-opacity="1" fill-rule="nonzero"/><path fill="#311e69" d="M 650.160156 381.425781 L 640.792969 381.425781 L 663.230469 252.679688 C 663.617188 250.46875 665.535156 248.859375 667.777344 248.859375 C 670.640625 248.859375 672.8125 251.4375 672.320312 254.257812 L 650.160156 381.425781 " fill-opacity="1" fill-rule="nonzero"/><path fill="#311e69" d="M 705.730469 381.425781 L 696.367188 381.425781 L 718.800781 252.679688 C 719.183594 250.46875 721.101562 248.859375 723.347656 248.859375 C 726.207031 248.859375 728.382812 251.4375 727.890625 254.257812 L 705.730469 381.425781 " fill-opacity="1" fill-rule="nonzero"/><path fill="#311e69" d="M 573.820312 386.511719 L 583.183594 386.398438 L 562.3125 515.40625 C 561.957031 517.621094 560.054688 519.253906 557.816406 519.28125 C 554.949219 519.316406 552.746094 516.761719 553.207031 513.933594 L 573.820312 386.511719 " fill-opacity="1" fill-rule="nonzero"/><path fill="#311e69" d="M 628.761719 386.511719 L 638.128906 386.398438 L 617.257812 515.40625 C 616.902344 517.621094 615.003906 519.253906 612.761719 519.28125 C 609.898438 519.316406 607.695312 516.761719 608.148438 513.933594 L 628.761719 386.511719 " fill-opacity="1" fill-rule="nonzero"/><path fill="#311e69" d="M 705.105469 386.511719 L 695.742188 386.398438 L 716.609375 515.40625 C 716.96875 517.621094 718.867188 519.253906 721.105469 519.28125 C 723.972656 519.316406 726.175781 516.761719 725.714844 513.933594 L 705.105469 386.511719 " fill-opacity="1" fill-rule="nonzero"/><path fill="#311e69" d="M 650.160156 386.511719 L 640.792969 386.398438 L 661.664062 515.40625 C 662.019531 517.621094 663.921875 519.253906 666.164062 519.28125 C 669.027344 519.316406 671.230469 516.761719 670.773438 513.933594 L 650.160156 386.511719 " fill-opacity="1" fill-rule="nonzero"/><path fill="#311e69" d="M 717.59375 276.109375 L 663.066406 276.109375 L 663.066406 266.953125 L 717.59375 266.953125 L 717.59375 276.109375 " fill-opacity="1" fill-rule="nonzero"/><path fill="#311e69" d="M 707.601562 425.347656 L 573.675781 425.347656 L 573.675781 416.195312 L 707.601562 416.195312 L 707.601562 425.347656 " fill-opacity="1" fill-rule="nonzero"/><path fill="#311e69" d="M 705.417969 387.386719 L 573.675781 387.386719 L 573.675781 379.546875 C 573.675781 377.5 575.332031 375.84375 577.378906 375.84375 L 705.417969 375.84375 L 705.417969 387.386719 " fill-opacity="1" fill-rule="nonzero"/><path fill="#ad263d" d="M 656.339844 335.773438 C 656.339844 335.773438 663.398438 374.835938 625.304688 380.578125 C 587.210938 386.324219 553.1875 375.40625 545.429688 379.714844 C 537.667969 384.027344 482.003906 501.144531 463.429688 497.195312 C 447.125 493.71875 465.417969 414.59375 479.960938 377.882812 C 503.65625 318.066406 534.613281 310.292969 579.175781 309.203125 C 629.183594 307.984375 656.339844 328.433594 656.339844 335.773438 " fill-opacity="1" fill-rule="nonzero"/><path fill="#9a8fff" d="M 549.527344 520.453125 C 549.527344 520.453125 549.757812 522.863281 550.753906 523.753906 C 551.746094 524.648438 571.28125 526.132812 586.65625 524.449219 C 602.03125 522.761719 611.457031 520.78125 612.050781 518.996094 C 612.644531 517.214844 610.960938 513.941406 607.882812 513.546875 C 604.808594 513.144531 549.527344 520.453125 549.527344 520.453125 " fill-opacity="1" fill-rule="nonzero"/><path fill="#ff6161" d="M 606.085938 504.878906 C 602.296875 499.878906 601.03125 494.226562 600.382812 489.5625 L 583.34375 489.445312 C 583.34375 489.445312 584.332031 496.289062 581.601562 501.070312 C 580.414062 503.160156 577.234375 503.632812 567.378906 507.199219 C 558.714844 510.335938 547.542969 513.28125 549.527344 520.453125 C 550.769531 524.945312 601.515625 522.648438 609.332031 517.789062 C 613.421875 515.25 610.246094 510.359375 606.085938 504.878906 " fill-opacity="1" fill-rule="nonzero"/><path fill="#9a8fff" d="M 570.050781 506.253906 C 569.214844 506.542969 568.339844 506.851562 567.378906 507.199219 C 558.714844 510.335938 547.542969 513.28125 549.527344 520.453125 C 550.230469 523 566.835938 523.367188 582.515625 522.320312 C 580.964844 514.226562 574.628906 509.027344 570.050781 506.253906 " fill-opacity="1" fill-rule="nonzero"/><path fill="#ff6161" d="M 694.007812 335.773438 C 694.007812 335.773438 701.066406 374.835938 662.972656 380.578125 C 624.878906 386.324219 589.660156 382.609375 581.898438 386.917969 C 574.140625 391.222656 618.988281 499.3125 595.25 504.355469 C 563.589844 511.082031 514.109375 405.421875 519.855469 366.359375 C 525.601562 327.300781 572.28125 310.292969 616.847656 309.203125 C 666.847656 307.984375 694.007812 328.433594 694.007812 335.773438 " fill-opacity="1" fill-rule="nonzero"/><path fill="#ad263d" d="M 682.839844 323.859375 C 679.679688 321.890625 675.859375 319.917969 671.398438 318.085938 C 652.386719 327.382812 596.417969 357.339844 578.625 360.773438 C 557.257812 364.894531 548.273438 361.691406 549.296875 387.386719 C 550.316406 413.085938 574.820312 437.542969 578.625 467.117188 C 581.261719 487.613281 590.335938 497.683594 600.277344 500.261719 C 610.894531 479.59375 574.882812 390.8125 581.898438 386.917969 C 589.660156 382.609375 624.878906 386.324219 662.972656 380.578125 C 667.984375 379.824219 672.199219 378.476562 675.769531 376.734375 C 682.617188 354.96875 686.082031 335.550781 682.839844 323.859375 " fill-opacity="1" fill-rule="nonzero"/><path fill="#614cd4" d="M 616.847656 309.203125 C 587.542969 309.917969 557.335938 317.519531 538.441406 333.742188 C 548.722656 339.632812 589.871094 364.105469 600.734375 384.535156 C 616.296875 384.0625 639.066406 384.179688 662.972656 380.578125 C 701.066406 374.835938 694.007812 335.773438 694.007812 335.773438 C 694.007812 328.433594 666.851562 307.984375 616.847656 309.203125 " fill-opacity="1" fill-rule="nonzero"/><path fill="#311e69" d="M 694.007812 335.773438 C 694.007812 331.238281 683.617188 321.695312 663.882812 315.355469 C 663.222656 320.609375 661.847656 325.671875 659.230469 329.378906 C 650.589844 341.621094 643.742188 349.835938 624.5625 353.394531 C 610.917969 355.925781 590.351562 358.320312 578.625 360.773438 C 588.125 368.453125 596.613281 376.785156 600.734375 384.535156 C 616.296875 384.0625 639.066406 384.179688 662.972656 380.578125 C 701.066406 374.835938 694.007812 335.773438 694.007812 335.773438 " fill-opacity="1" fill-rule="nonzero"/><path fill="#d8e7eb" d="M 592.410156 311.449219 C 587.21875 300.273438 585.453125 295.292969 584.609375 284.960938 C 579.738281 225.519531 559.617188 228.960938 560.777344 210.347656 C 562.820312 177.636719 620.367188 149.125 667.0625 191.117188 C 680.222656 202.949219 726.730469 285.8125 694.464844 345.402344 C 689.921875 353.785156 631.839844 312.148438 592.410156 311.449219 " fill-opacity="1" fill-rule="nonzero"/><path fill="#ff6161" d="M 171.273438 343.195312 C 171.273438 343.195312 168.460938 382.386719 206.5625 384.015625 C 244.664062 385.648438 269.214844 380.910156 277.304688 384.332031 C 285.398438 387.753906 278.09375 475.171875 277.820312 496.644531 C 277.554688 518.125 288.675781 506.824219 298.414062 507.648438 C 308.152344 508.46875 355.710938 392.742188 345.925781 354.902344 C 336.136719 317.0625 288.394531 305.257812 244.414062 308.894531 C 195.066406 312.976562 170.5 335.96875 171.273438 343.195312 " fill-opacity="1" fill-rule="nonzero"/><path fill="#614cd4" d="M 416.660156 496.5 C 416.660156 496.5 416.078125 498.847656 416.71875 500.015625 C 417.359375 501.1875 435.300781 509.0625 450.367188 512.558594 C 465.433594 516.058594 474.984375 517.308594 476.132812 515.820312 C 477.289062 514.335938 476.78125 510.6875 474.011719 509.296875 C 471.242188 507.90625 416.660156 496.5 416.660156 496.5 " fill-opacity="1" fill-rule="nonzero"/><path fill="#ad263d" d="M 475.191406 500.527344 C 473.269531 494.554688 473.953125 488.800781 474.882812 484.1875 L 458.847656 478.4375 C 458.847656 478.4375 457.511719 485.214844 453.347656 488.828125 C 451.53125 490.402344 448.378906 489.796875 437.898438 489.902344 C 428.6875 489.996094 417.167969 489.070312 416.660156 496.5 C 416.34375 501.148438 464.984375 515.78125 473.976562 513.78125 C 478.675781 512.738281 477.296875 507.074219 475.191406 500.527344 " fill-opacity="1" fill-rule="nonzero"/><path fill="#614cd4" d="M 440.734375 489.894531 C 439.847656 489.890625 438.917969 489.894531 437.898438 489.90625 C 428.6875 489.996094 417.167969 489.070312 416.660156 496.5 C 416.480469 499.132812 432.027344 504.976562 447.167969 509.179688 C 448.386719 501.027344 444.132812 494.027344 440.734375 489.894531 " fill-opacity="1" fill-rule="nonzero"/><path fill="#ff6161" d="M 299.304688 502.234375 C 301.214844 502.328125 302.378906 504.425781 301.382812 506.054688 C 300.140625 508.089844 299.296875 510.6875 300.792969 513.027344 C 302.109375 515.09375 305.960938 516.625 311.265625 518.820312 C 313.769531 520.96875 316.214844 523.738281 313.515625 524.605469 C 308.890625 526.09375 281.726562 526.179688 279.164062 521.742188 C 278.304688 520.253906 277.21875 519.078125 276.011719 518.167969 C 279.621094 512.871094 277.976562 506.019531 278.402344 501.230469 L 299.304688 502.234375 " fill-opacity="1" fill-rule="nonzero"/><g clip-path="url(#id4)"><path fill="#614cd4" d="M 279.164062 521.742188 C 281.566406 525.902344 298.207031 507.082031 309.15625 516.535156 C 311.078125 518.195312 313.101562 519.734375 315.351562 520.90625 C 322.695312 524.71875 330.097656 528.964844 330.40625 531.351562 C 331.015625 536.074219 281.589844 536.054688 273.367188 531.5 C 269.066406 529.121094 272.058594 523.96875 276.011719 518.167969 C 277.21875 519.078125 278.304688 520.253906 279.164062 521.742188 " fill-opacity="1" fill-rule="nonzero"/></g><path fill="#ad263d" d="M 300.832031 422.210938 C 297.183594 412.335938 289.53125 406.589844 280.957031 403.292969 C 281.890625 431.085938 278.019531 481.113281 277.820312 496.644531 C 277.554688 518.125 307.488281 483.933594 311.304688 474.507812 C 317.78125 458.53125 311.773438 451.785156 300.832031 422.210938 " fill-opacity="1" fill-rule="nonzero"/><path fill="#311e69" d="M 321.636719 438.359375 C 321.636719 438.359375 309.582031 432.433594 289.125 435.355469 C 286.074219 435.789062 283.210938 436.851562 280.53125 438.328125 C 280.117188 449.128906 279.542969 460.132812 279.027344 469.863281 C 288.328125 462.140625 314.753906 440.523438 321.636719 438.359375 " fill-opacity="1" fill-rule="nonzero"/><path fill="#ff8f8f" d="M 356.179688 321.8125 C 345.191406 312.550781 265.804688 300.867188 257.003906 293.871094 C 242.222656 325.398438 201.691406 362.59375 165.199219 367.664062 C 177.457031 384.113281 205.792969 392.683594 231.863281 394.371094 C 245.921875 395.277344 256.542969 407.363281 255.367188 421.394531 C 253.238281 446.808594 252.976562 473.34375 260.996094 474.417969 C 276.53125 476.496094 284.742188 441.191406 309.945312 439.003906 C 335.152344 436.816406 364.59375 441 378 425.585938 C 391.050781 410.574219 392.09375 352.082031 356.179688 321.8125 " fill-opacity="1" fill-rule="nonzero"/><path fill="#d95f76" d="M 356.179688 321.8125 C 345.191406 312.550781 265.804688 300.867188 257.003906 293.871094 C 248.445312 312.125 231.246094 332.269531 211.207031 346.984375 C 211.582031 347.160156 211.945312 347.347656 212.335938 347.503906 C 239.625 358.324219 302.09375 346.902344 320.175781 387.386719 C 329.082031 407.332031 332.46875 424.960938 333.230469 438.050781 C 351.375 437.558594 368.621094 436.375 378 425.585938 C 391.050781 410.574219 392.09375 352.082031 356.179688 321.8125 " fill-opacity="1" fill-rule="nonzero"/><path fill="#c3d4d8" d="M 569.765625 524.808594 L 582.429688 524.808594 L 582.429688 353.199219 L 569.765625 353.199219 L 569.765625 524.808594 " fill-opacity="1" fill-rule="nonzero"/><path fill="#311e69" d="M 588.25 331.148438 L 588.25 351.011719 C 588.25 354.121094 583.367188 356.835938 576.90625 357.035156 C 569.828125 357.257812 563.945312 354.5625 563.945312 351.210938 L 563.945312 331.148438 C 563.945312 330.171875 565.59375 329.378906 567.625 329.378906 L 584.570312 329.378906 C 586.605469 329.378906 588.25 330.171875 588.25 331.148438 " fill-opacity="1" fill-rule="nonzero"/><path fill="#311e69" d="M 565.769531 528.660156 L 586.421875 528.660156 L 586.421875 525.164062 C 586.421875 524.257812 585.6875 523.519531 584.773438 523.519531 L 567.421875 523.519531 C 566.511719 523.519531 565.769531 524.257812 565.769531 525.164062 L 565.769531 528.660156 " fill-opacity="1" fill-rule="nonzero"/><path fill="#c3d4d8" d="M 368.648438 524.808594 L 381.3125 524.808594 L 381.3125 353.199219 L 368.648438 353.199219 L 368.648438 524.808594 " fill-opacity="1" fill-rule="nonzero"/><path fill="#311e69" d="M 387.136719 331.148438 L 387.136719 351.011719 C 387.136719 354.121094 382.25 356.835938 375.789062 357.035156 C 368.707031 357.257812 362.824219 354.5625 362.824219 351.210938 L 362.824219 331.148438 C 362.824219 330.171875 364.472656 329.378906 366.503906 329.378906 L 383.453125 329.378906 C 385.484375 329.378906 387.136719 330.171875 387.136719 331.148438 " fill-opacity="1" fill-rule="nonzero"/><path fill="#311e69" d="M 364.652344 528.660156 L 385.304688 528.660156 L 385.304688 525.164062 C 385.304688 524.257812 384.566406 523.519531 383.660156 523.519531 L 366.300781 523.519531 C 365.390625 523.519531 364.652344 524.257812 364.652344 525.164062 L 364.652344 528.660156 " fill-opacity="1" fill-rule="nonzero"/><path fill="#c3d4d8" d="M 611 316.800781 C 611 316.800781 613.050781 322.828125 612.453125 329.992188 C 611.792969 337.871094 604.242188 343.882812 595.378906 343.882812 L 371.382812 343.882812 C 359.199219 343.882812 347.230469 341.058594 336.648438 335.679688 L 266.402344 296.195312 C 254.191406 289.988281 255.464844 286.648438 255.574219 274.117188 L 255.632812 266.890625 L 611 316.800781 " fill-opacity="1" fill-rule="nonzero"/><path fill="#d8e7eb" d="M 601.613281 327.632812 C 610.835938 327.632812 614.511719 317.003906 606.886719 312.375 C 573.976562 292.394531 517.347656 259.6875 496.605469 257.9375 C 472.472656 255.902344 389.714844 257.140625 267.964844 257.703125 C 255.023438 257.761719 250.566406 273.09375 261.847656 278.753906 L 343.707031 319.820312 C 353.914062 324.941406 365.433594 327.632812 377.148438 327.632812 L 601.613281 327.632812 " fill-opacity="1" fill-rule="nonzero"/><path fill="#ad263d" d="M 485.1875 251.039062 C 478.371094 277.011719 552.214844 296.957031 576.097656 287.234375 C 595.644531 279.277344 564.035156 253.667969 564.035156 253.667969 C 564.035156 253.667969 487.546875 242.050781 485.1875 251.039062 " fill-opacity="1" fill-rule="nonzero"/><path fill="#311e69" d="M 576.097656 287.234375 C 595.644531 279.277344 564.035156 253.667969 564.035156 253.667969 C 564.035156 253.667969 571.488281 272.117188 575.757812 287.351562 C 575.867188 287.308594 575.992188 287.277344 576.097656 287.234375 " fill-opacity="1" fill-rule="nonzero"/><path fill="#c3d4d8" d="M 667.0625 191.117188 C 649.574219 175.386719 630.5625 169.550781 613.515625 170.125 C 619.308594 176.503906 633.144531 193.832031 633.1875 213.746094 C 633.222656 231.109375 629.070312 286.335938 626.484375 319 C 658.957031 330.777344 691.128906 351.554688 694.464844 345.402344 C 726.730469 285.8125 680.222656 202.949219 667.0625 191.117188 " fill-opacity="1" fill-rule="nonzero"/><path fill="#ad263d" d="M 493.804688 248.539062 C 493.804688 248.539062 477.324219 245.484375 467.054688 251.933594 C 456.789062 258.378906 447.3125 262 454.414062 264.710938 C 461.515625 267.421875 483.898438 264.214844 488.503906 264.609375 C 506.253906 266.105469 500.128906 253.359375 493.804688 248.539062 " fill-opacity="1" fill-rule="nonzero"/><path fill="#ad263d" d="M 531.128906 295.378906 C 531.128906 295.378906 532.261719 298.71875 531.933594 302.675781 C 531.570312 307.035156 527.390625 310.363281 522.488281 310.363281 L 398.570312 310.363281 C 391.832031 310.363281 385.210938 308.800781 379.355469 305.828125 L 340.496094 283.980469 C 333.742188 280.550781 334.445312 278.699219 334.503906 271.769531 L 334.539062 267.773438 L 531.128906 295.378906 " fill-opacity="1" fill-rule="nonzero"/><path fill="#ff6161" d="M 393.042969 286.765625 L 419.292969 301.375 L 447.578125 301.375 L 421.324219 286.765625 L 393.042969 286.765625 " fill-opacity="1" fill-rule="nonzero"/><path fill="#ff6161" d="M 394.9375 272.078125 L 377.695312 262.484375 C 368.886719 262.539062 359.539062 262.59375 349.703125 262.648438 L 366.652344 272.078125 L 394.9375 272.078125 " fill-opacity="1" fill-rule="nonzero"/><path fill="#ad263d" d="M 366.652344 272.078125 L 393.042969 286.765625 L 421.324219 286.765625 L 394.9375 272.078125 L 366.652344 272.078125 " fill-opacity="1" fill-rule="nonzero"/><path fill="#ad263d" d="M 421.324219 286.765625 L 447.578125 301.375 L 465.375 301.375 L 441.339844 286.765625 L 421.324219 286.765625 " fill-opacity="1" fill-rule="nonzero"/><path fill="#ad263d" d="M 417.1875 272.078125 L 401.148438 262.332031 C 393.824219 262.375 386 262.429688 377.695312 262.484375 L 394.9375 272.078125 L 417.1875 272.078125 " fill-opacity="1" fill-rule="nonzero"/><path fill="#ff6161" d="M 394.9375 272.078125 L 421.324219 286.765625 L 441.339844 286.765625 L 417.1875 272.078125 L 394.9375 272.078125 " fill-opacity="1" fill-rule="nonzero"/><path fill="#ad263d" d="M 349.703125 262.648438 C 346.957031 262.660156 344.1875 262.675781 341.363281 262.6875 C 335.550781 262.714844 332.835938 268.300781 335.34375 272.078125 L 366.652344 272.078125 L 349.703125 262.648438 " fill-opacity="1" fill-rule="nonzero"/><path fill="#ff6161" d="M 366.652344 272.078125 L 335.34375 272.078125 C 335.933594 272.960938 336.796875 273.742188 337.976562 274.332031 L 362.753906 286.765625 L 393.042969 286.765625 L 366.652344 272.078125 " fill-opacity="1" fill-rule="nonzero"/><path fill="#ad263d" d="M 362.753906 286.765625 L 383.257812 297.050781 C 388.90625 299.886719 395.277344 301.375 401.757812 301.375 L 419.292969 301.375 L 393.042969 286.765625 L 362.753906 286.765625 " fill-opacity="1" fill-rule="nonzero"/><path fill="#ff6161" d="M 444.0625 272.078125 L 426.324219 262.210938 C 418.769531 262.234375 410.363281 262.277344 401.148438 262.332031 L 417.1875 272.078125 L 444.0625 272.078125 " fill-opacity="1" fill-rule="nonzero"/><path fill="#ff6161" d="M 441.339844 286.765625 L 465.375 301.375 L 496.703125 301.375 L 470.449219 286.765625 L 441.339844 286.765625 " fill-opacity="1" fill-rule="nonzero"/><path fill="#ad263d" d="M 417.1875 272.078125 L 441.339844 286.765625 L 470.449219 286.765625 L 444.0625 272.078125 L 417.1875 272.078125 " fill-opacity="1" fill-rule="nonzero"/><path fill="#ff6161" d="M 528.851562 292.933594 C 525.742188 291.042969 522.230469 288.945312 518.519531 286.765625 L 498.730469 286.765625 L 524.980469 301.375 L 525.9375 301.375 C 531.039062 301.375 533.074219 295.496094 528.851562 292.933594 " fill-opacity="1" fill-rule="nonzero"/><path fill="#ff6161" d="M 491.898438 272.078125 C 481.898438 267.035156 472.925781 263.246094 467.84375 262.816406 C 464.972656 262.574219 460.578125 262.417969 454.808594 262.316406 L 472.34375 272.078125 L 491.898438 272.078125 " fill-opacity="1" fill-rule="nonzero"/><path fill="#ad263d" d="M 498.730469 286.765625 L 518.519531 286.765625 C 510.125 281.835938 500.628906 276.484375 491.898438 272.078125 L 472.34375 272.078125 L 498.730469 286.765625 " fill-opacity="1" fill-rule="nonzero"/><path fill="#ad263d" d="M 472.34375 272.078125 L 454.808594 262.316406 C 447.484375 262.195312 437.914062 262.175781 426.324219 262.210938 L 444.0625 272.078125 L 472.34375 272.078125 " fill-opacity="1" fill-rule="nonzero"/><path fill="#ff6161" d="M 444.0625 272.078125 L 470.449219 286.765625 L 498.730469 286.765625 L 472.34375 272.078125 L 444.0625 272.078125 " fill-opacity="1" fill-rule="nonzero"/><path fill="#ad263d" d="M 470.449219 286.765625 L 496.703125 301.375 L 524.980469 301.375 L 498.730469 286.765625 L 470.449219 286.765625 " fill-opacity="1" fill-rule="nonzero"/><path fill="#ad263d" d="M 466.933594 301.289062 L 404.796875 262.164062 L 399.777344 262.109375 L 464.113281 303.886719 L 466.933594 301.289062 " fill-opacity="1" fill-rule="nonzero"/><path fill="#ff6161" d="M 644.792969 282.269531 C 641.574219 289.300781 542.449219 273.851562 545.859375 292.519531 C 549.085938 310.148438 648.867188 348.519531 681.9375 307.132812 C 712.613281 268.742188 674.511719 195.171875 656.855469 192.136719 C 621.273438 186.019531 656.121094 257.523438 644.792969 282.269531 " fill-opacity="1" fill-rule="nonzero"/><path fill="#311e69" d="M 683.101562 303.375 C 683.101562 303.375 667.578125 333.859375 644.929688 334.226562 C 622.28125 334.589844 615.707031 322.542969 615.707031 322.542969 L 683.101562 303.375 " fill-opacity="1" fill-rule="nonzero"/><path fill="#ad263d" d="M 561.898438 299.488281 C 566.140625 298.449219 571.078125 302.992188 581.214844 307.648438 C 591.359375 312.300781 604.507812 312.027344 625.609375 306.550781 C 646.710938 301.074219 642.054688 306.550781 657.949219 304.625 C 673.839844 302.699219 670.550781 299.980469 679.324219 286.285156 C 685.109375 277.25 689.878906 264.398438 692.453125 256.699219 C 695.125 274.78125 693.027344 293.257812 681.9375 307.132812 C 652.289062 344.242188 569.011719 317.230469 549.789062 298.539062 C 553.667969 297.734375 559.3125 300.121094 561.898438 299.488281 " fill-opacity="1" fill-rule="nonzero"/><path fill="#ff6161" d="M 562.875 285.351562 C 562.875 285.351562 546.394531 282.304688 536.125 288.75 C 525.859375 295.199219 516.386719 298.816406 523.488281 301.527344 C 530.589844 304.238281 552.492188 305.015625 557.023438 304.109375 C 571.996094 301.101562 569.199219 290.175781 562.875 285.351562 " fill-opacity="1" fill-rule="nonzero"/><path fill="#311e69" d="M 650.277344 258.714844 L 683.101562 271.882812 C 683.101562 271.882812 668.378906 283.222656 646.246094 277.820312 C 647.398438 272.699219 647.355469 266.378906 646.71875 259.496094 C 648.828125 258.988281 650.277344 258.714844 650.277344 258.714844 " fill-opacity="1" fill-rule="nonzero"/><path fill="#d8e7eb" d="M 664.34375 272.59375 C 657.617188 271.425781 651.585938 269.886719 647.160156 268.980469 C 647.519531 238.472656 626.417969 186.90625 656.855469 192.136719 C 669.65625 194.335938 693.191406 233.601562 693.488281 269.667969 C 687.269531 271.265625 673.765625 274.230469 664.34375 272.59375 " fill-opacity="1" fill-rule="nonzero"/><path fill="#1e1240" d="M 421.324219 293.089844 C 425.257812 293.089844 430.457031 293.089844 430.457031 293.089844 L 430.457031 296.425781 C 430.457031 298.269531 426.367188 299.761719 421.324219 299.761719 C 416.28125 299.761719 412.195312 298.269531 412.195312 296.425781 L 412.195312 293.089844 C 412.195312 293.089844 417.394531 293.089844 421.324219 293.089844 " fill-opacity="1" fill-rule="nonzero"/><path fill="#311e69" d="M 412.195312 293.304688 C 412.195312 295.148438 416.28125 296.640625 421.324219 296.640625 C 426.367188 296.640625 430.457031 295.148438 430.457031 293.304688 C 430.457031 291.460938 426.367188 289.964844 421.324219 289.964844 C 416.28125 289.964844 412.195312 291.460938 412.195312 293.304688 " fill-opacity="1" fill-rule="nonzero"/><path fill="#311e69" d="M 414.152344 279.074219 C 412.6875 278.972656 412.492188 276.484375 413.421875 275.796875 C 414.351562 275.113281 417.085938 276.382812 419.433594 275.554688 C 420.671875 275.117188 421.972656 274.8125 423.28125 274.941406 C 423.6875 274.492188 424.304688 273.972656 425.101562 273.796875 C 426.207031 273.542969 426.171875 275.105469 426.070312 275.976562 C 426.300781 276.140625 426.535156 276.324219 426.765625 276.53125 C 429.160156 278.679688 424.957031 283.859375 425.25 285.472656 C 425.542969 287.085938 426.714844 288.0625 427.84375 288.746094 C 428.96875 289.429688 429.113281 292.652344 429.113281 292.652344 L 413.714844 292.652344 C 413.371094 284.152344 418.117188 282.898438 418.355469 281.238281 C 418.605469 279.574219 415.621094 279.167969 414.152344 279.074219 " fill-opacity="1" fill-rule="nonzero"/><path fill="#b5b5b5" d="M 428.425781 262.605469 C 432.359375 262.605469 437.558594 262.605469 437.558594 262.605469 L 437.558594 265.945312 C 437.558594 267.785156 433.46875 269.28125 428.425781 269.28125 C 423.382812 269.28125 419.292969 267.785156 419.292969 265.945312 L 419.292969 262.605469 C 419.292969 262.605469 424.496094 262.605469 428.425781 262.605469 " fill-opacity="1" fill-rule="nonzero"/><path fill="#c1d6db" d="M 419.292969 262.820312 C 419.292969 264.664062 423.382812 266.160156 428.425781 266.160156 C 433.46875 266.160156 437.558594 264.664062 437.558594 262.820312 C 437.558594 260.976562 433.46875 259.488281 428.425781 259.488281 C 423.382812 259.488281 419.292969 260.976562 419.292969 262.820312 " fill-opacity="1" fill-rule="nonzero"/><path fill="#c1d6db" d="M 423.945312 257.507812 C 423.847656 257.507812 423.765625 257.414062 423.765625 257.296875 C 423.765625 256.871094 424.066406 256.523438 424.433594 256.523438 L 424.777344 256.523438 C 425.097656 256.523438 425.371094 256.261719 425.433594 255.894531 C 425.765625 253.839844 426.753906 247.421875 426.371094 246.53125 C 426.371094 246.53125 424.230469 246.289062 424.222656 245.625 C 424.214844 245.015625 426.175781 244.714844 426.175781 244.714844 C 426.175781 244.714844 425.785156 240.707031 424.222656 239.570312 L 432.628906 239.570312 C 431.066406 240.707031 430.675781 244.714844 430.675781 244.714844 C 430.675781 244.714844 432.640625 245.015625 432.628906 245.625 C 432.621094 246.289062 430.476562 246.53125 430.476562 246.53125 C 430.117188 247.367188 430.96875 253.058594 431.347656 255.460938 C 431.449219 256.074219 431.910156 256.523438 432.453125 256.523438 C 432.804688 256.523438 433.085938 256.851562 433.085938 257.257812 L 433.085938 257.296875 C 433.085938 257.414062 433.007812 257.507812 432.90625 257.507812 C 432.765625 257.507812 432.675781 257.683594 432.75 257.824219 C 433.351562 258.988281 436.019531 262.503906 436.019531 262.503906 L 420.832031 262.503906 C 420.832031 262.503906 423.5 258.988281 424.101562 257.824219 C 424.175781 257.683594 424.085938 257.507812 423.945312 257.507812 " fill-opacity="1" fill-rule="nonzero"/><path fill="#ad263d" d="M 265.542969 237.746094 C 265.542969 237.746094 334.398438 249.113281 334.410156 262.648438 C 334.421875 276.175781 282.328125 278.175781 269.105469 267.136719 C 255.882812 256.097656 265.542969 237.746094 265.542969 237.746094 " fill-opacity="1" fill-rule="nonzero"/><path fill="#1e1240" d="M 391.023438 293.089844 C 394.960938 293.089844 400.15625 293.089844 400.15625 293.089844 L 400.15625 296.425781 C 400.15625 298.269531 396.066406 299.761719 391.023438 299.761719 C 385.980469 299.761719 381.894531 298.269531 381.894531 296.425781 L 381.894531 293.089844 C 381.894531 293.089844 387.089844 293.089844 391.023438 293.089844 " fill-opacity="1" fill-rule="nonzero"/><path fill="#311e69" d="M 381.894531 293.304688 C 381.894531 295.148438 385.980469 296.640625 391.023438 296.640625 C 396.066406 296.640625 400.15625 295.148438 400.15625 293.304688 C 400.15625 291.460938 396.066406 289.964844 391.023438 289.964844 C 385.980469 289.964844 381.894531 291.460938 381.894531 293.304688 " fill-opacity="1" fill-rule="nonzero"/><path fill="#311e69" d="M 386.855469 281.742188 C 387.058594 279.289062 386.855469 274.632812 386.855469 274.632812 L 395.195312 274.632812 C 395.195312 274.632812 394.992188 279.289062 395.195312 281.742188 C 395.398438 284.195312 398.136719 291.046875 398.136719 291.046875 L 398.136719 295.023438 L 383.914062 295.023438 L 383.914062 291.046875 C 383.914062 291.046875 386.648438 284.195312 386.855469 281.742188 " fill-opacity="1" fill-rule="nonzero"/><path fill="#9e9e9e" d="M 266.464844 159.457031 C 265.589844 156.265625 262.449219 153.953125 258.214844 152.921875 C 259.472656 155.058594 260.40625 158.332031 257.351562 161.535156 C 252.5 166.617188 235.40625 164.734375 231.664062 173.347656 C 233.707031 183.957031 241.171875 186.984375 249.015625 183.160156 C 257.226562 179.152344 262.617188 171.8125 262.617188 171.8125 L 264.40625 169.121094 C 264.40625 169.121094 268.113281 165.449219 266.464844 159.457031 " fill-opacity="1" fill-rule="nonzero"/><path fill="#1e1240" d="M 466.933594 291.867188 C 470.867188 291.867188 476.066406 291.867188 476.066406 291.867188 L 476.066406 295.207031 C 476.066406 297.050781 471.976562 298.542969 466.933594 298.542969 C 461.890625 298.542969 457.804688 297.050781 457.804688 295.207031 L 457.804688 291.867188 C 457.804688 291.867188 463 291.867188 466.933594 291.867188 " fill-opacity="1" fill-rule="nonzero"/><path fill="#311e69" d="M 457.804688 292.085938 C 457.804688 293.929688 461.890625 295.425781 466.933594 295.425781 C 471.976562 295.425781 476.066406 293.929688 476.066406 292.085938 C 476.066406 290.246094 471.976562 288.75 466.933594 288.75 C 461.890625 288.75 457.804688 290.246094 457.804688 292.085938 " fill-opacity="1" fill-rule="nonzero"/><path fill="#311e69" d="M 470.210938 283.027344 C 470.375 285.359375 472.519531 291.867188 472.519531 291.867188 L 461.347656 291.867188 C 461.347656 291.867188 463.492188 285.359375 463.65625 283.027344 C 463.734375 281.882812 463.738281 280.234375 463.71875 278.855469 C 462.660156 277.949219 461.992188 276.605469 461.992188 275.101562 C 461.992188 272.375 464.203125 270.164062 466.933594 270.164062 C 469.667969 270.164062 471.878906 272.375 471.878906 275.101562 C 471.878906 276.605469 471.210938 277.949219 470.152344 278.855469 C 470.132812 280.234375 470.132812 281.882812 470.210938 283.027344 " fill-opacity="1" fill-rule="nonzero"/><path fill="#1e1240" d="M 449.335938 264.328125 C 453.265625 264.328125 458.464844 264.328125 458.464844 264.328125 L 458.464844 267.664062 C 458.464844 269.511719 454.378906 271.003906 449.335938 271.003906 C 444.292969 271.003906 440.199219 269.511719 440.199219 267.664062 L 440.199219 264.328125 C 440.199219 264.328125 445.402344 264.328125 449.335938 264.328125 " fill-opacity="1" fill-rule="nonzero"/><path fill="#311e69" d="M 440.199219 264.546875 C 440.199219 266.386719 444.292969 267.882812 449.335938 267.882812 C 454.378906 267.882812 458.464844 266.386719 458.464844 264.546875 C 458.464844 262.703125 454.378906 261.207031 449.335938 261.207031 C 444.292969 261.207031 440.199219 262.703125 440.199219 264.546875 " fill-opacity="1" fill-rule="nonzero"/><path fill="#311e69" d="M 452.613281 255.488281 C 452.773438 257.816406 454.921875 264.328125 454.921875 264.328125 L 443.75 264.328125 C 443.75 264.328125 445.894531 257.816406 446.058594 255.488281 C 446.136719 254.34375 446.140625 252.695312 446.117188 251.3125 C 445.0625 250.40625 444.390625 249.0625 444.390625 247.5625 C 444.390625 244.832031 446.605469 242.621094 449.335938 242.621094 C 452.0625 242.621094 454.277344 244.832031 454.277344 247.5625 C 454.277344 249.0625 453.609375 250.40625 452.550781 251.3125 C 452.535156 252.695312 452.535156 254.34375 452.613281 255.488281 " fill-opacity="1" fill-rule="nonzero"/><path fill="#ff8f8f" d="M 258.695312 294.882812 C 260.9375 289.53125 273.277344 263.628906 275.757812 247.015625 C 277.867188 232.859375 266.800781 210.082031 244.925781 201.488281 C 169.601562 171.890625 132.042969 321.8125 162.238281 363.046875 C 163.308594 364.507812 164.089844 366.183594 165.199219 367.664062 C 201.691406 362.59375 245.226562 326.996094 258.695312 294.882812 " fill-opacity="1" fill-rule="nonzero"/><path fill="#b5b5b5" d="M 573.363281 160.933594 C 573.363281 160.933594 569.574219 157.617188 570.019531 153.671875 C 570.464844 149.730469 573.523438 146.6875 576.203125 145.84375 C 578.878906 145 578.363281 160.113281 573.363281 160.933594 " fill-opacity="1" fill-rule="nonzero"/><path fill="#ff6161" d="M 572.175781 157.976562 C 572.175781 157.976562 567.792969 147.027344 578.605469 141.699219 C 586.804688 137.664062 589.734375 139.460938 592.957031 141.558594 C 596.183594 143.660156 599.441406 151.75 599.671875 153.839844 C 600.035156 157.160156 600.785156 160.921875 599.589844 164.75 C 598.554688 168.0625 572.914062 160.503906 572.175781 157.976562 " fill-opacity="1" fill-rule="nonzero"/><path fill="#ff6161" d="M 598.21875 156.453125 L 608.261719 178.003906 C 608.695312 181.257812 596.191406 193.152344 589.972656 189.742188 C 588.152344 188.746094 589.121094 184.894531 588.636719 181.234375 C 587.527344 172.878906 590.632812 161.976562 590.632812 161.976562 L 598.21875 156.453125 " fill-opacity="1" fill-rule="nonzero"/><path fill="#311e69" d="M 588.792969 183.886719 C 588.785156 183.019531 588.753906 182.125 588.636719 181.234375 C 588.21875 178.101562 588.394531 174.605469 588.78125 171.460938 L 597.488281 167.5 C 597.488281 167.5 596.066406 180.167969 588.792969 183.886719 " fill-opacity="1" fill-rule="nonzero"/><path fill="#ff6161" d="M 586.628906 149.167969 L 596.183594 160.363281 C 601.667969 169.355469 591.164062 176.578125 586.476562 178.25 C 582.570312 179.644531 578.917969 177.054688 576.507812 172.234375 C 573.375 165.972656 572.269531 159.316406 571.882812 155.726562 C 570.988281 147.535156 579.167969 142.660156 586.628906 149.167969 " fill-opacity="1" fill-rule="nonzero"/><path fill="#b5b5b5" d="M 587.320312 179.992188 C 580.171875 182.394531 578.394531 178.839844 575.980469 174.019531 C 575.195312 172.445312 575.058594 169.054688 574.503906 167.484375 C 577.101562 165.773438 582.222656 165.214844 586.640625 163.171875 C 592.464844 160.46875 591.011719 154.308594 591.011719 154.308594 L 591.015625 154.308594 L 596.183594 160.363281 C 601.667969 169.355469 592.035156 178.40625 587.320312 179.992188 " fill-opacity="1" fill-rule="nonzero"/><path fill="#9e9e9e" d="M 585.8125 176.015625 C 589.835938 174.660156 597.410156 167.875 596.144531 160.320312 L 596.183594 160.363281 C 601.667969 169.355469 592.035156 178.40625 587.320312 179.992188 C 580.171875 182.394531 578.394531 178.839844 575.980469 174.019531 C 575.6875 173.433594 575.488281 172.597656 575.320312 171.703125 C 577.386719 175.625 579.515625 178.132812 585.8125 176.015625 " fill-opacity="1" fill-rule="nonzero"/><path fill="#ffffff" d="M 584.101562 164.523438 C 584.101562 164.523438 581.09375 165.875 576.523438 167.496094 C 576.523438 167.496094 577.808594 170.359375 580 170.480469 C 582.1875 170.609375 584.757812 168.378906 584.101562 164.523438 " fill-opacity="1" fill-rule="nonzero"/><path fill="#b5b5b5" d="M 590.519531 139.019531 C 589.558594 138.789062 588.777344 139.820312 589.265625 140.679688 C 590.085938 142.113281 591.179688 144.492188 590.5 146.042969 C 589.472656 148.378906 589.210938 149.402344 589.804688 152.886719 C 590.394531 156.371094 590.242188 158.925781 592.550781 158.101562 C 594.855469 157.277344 598.933594 157.050781 600.328125 154.859375 C 603.085938 150.527344 598.332031 143.761719 595.886719 142.003906 C 594.28125 140.851562 592.152344 139.40625 590.519531 139.019531 " fill-opacity="1" fill-rule="nonzero"/><path fill="#b5b5b5" d="M 578.734375 163.136719 C 578.734375 163.136719 576.070312 163.625 574.894531 165.40625 C 573.722656 167.179688 573.550781 169.015625 574.457031 169.066406 C 575.359375 169.109375 579.289062 168.109375 579.960938 166.503906 C 579.960938 166.503906 583.316406 166.867188 586.519531 164.769531 C 589.722656 162.671875 584.816406 160.472656 578.734375 163.136719 " fill-opacity="1" fill-rule="nonzero"/><path fill="#ff6161" d="M 592.769531 154.308594 C 592.765625 152.523438 593.546875 149.601562 596.195312 150.898438 C 600.050781 152.789062 599.339844 160.40625 594.929688 161.140625 C 591.652344 161.679688 592.769531 155.246094 592.769531 154.308594 " fill-opacity="1" fill-rule="nonzero"/><path fill="#d95f76" d="M 244.925781 201.488281 C 232.882812 196.757812 221.8125 196.632812 211.828125 199.894531 C 213.558594 214.210938 216.265625 241.308594 213.898438 255.160156 C 210.582031 274.535156 183.484375 292.769531 194.023438 329.378906 C 196.335938 337.414062 203.105469 343.292969 212.335938 347.503906 C 233.054688 333.179688 250.90625 313.457031 258.695312 294.882812 C 260.9375 289.53125 273.277344 263.628906 275.757812 247.015625 C 277.867188 232.859375 266.800781 210.082031 244.925781 201.488281 " fill-opacity="1" fill-rule="nonzero"/><path fill="#311e69" d="M 217.707031 256.003906 C 217.707031 256.003906 220.511719 288.703125 237.324219 302.460938 C 254.136719 316.226562 283.5 301.375 283.5 301.375 L 217.707031 256.003906 " fill-opacity="1" fill-rule="nonzero"/><path fill="#ff6161" d="M 228.582031 212.359375 C 255.167969 216.113281 277.105469 260.871094 303.832031 263.484375 C 330.027344 266.042969 386.390625 225.152344 409.039062 235.738281 C 431.6875 246.324219 345.953125 308.347656 307.566406 309.152344 C 269.171875 309.957031 209.015625 275.699219 209.828125 238.296875 C 210.226562 219.824219 220.65625 211.242188 228.582031 212.359375 " fill-opacity="1" fill-rule="nonzero"/><path fill="#ff6161" d="M 240.183594 182.5 L 234.285156 202.503906 C 233.234375 205.160156 240.441406 214.46875 248.019531 212.671875 C 250.242188 212.144531 249.214844 207.878906 248.535156 204.675781 L 249.09375 189.585938 L 240.183594 182.5 " fill-opacity="1" fill-rule="nonzero"/><path fill="#311e69" d="M 248.761719 198.550781 C 241.164062 195.296875 241.515625 187.253906 241.515625 187.253906 L 249.015625 191.738281 L 248.761719 198.550781 " fill-opacity="1" fill-rule="nonzero"/><path fill="#ff6161" d="M 264.40625 169.121094 C 262.960938 170.128906 261.496094 171.070312 260.359375 171.601562 C 258.386719 172.527344 254.402344 174.03125 250.367188 175.324219 C 247.453125 176.261719 239.773438 180.375 240.121094 183.164062 C 240.683594 187.636719 243.257812 191.761719 247.507812 193.921875 C 253.882812 197.15625 261.558594 195.253906 265.132812 187.046875 C 267.949219 180.585938 265.605469 173.449219 264.40625 169.121094 " fill-opacity="1" fill-rule="nonzero"/><path fill="#ffffff" d="M 265.847656 184.800781 C 265.847656 184.800781 265.523438 186.226562 264.085938 186.277344 C 263.222656 186.308594 260.34375 185.628906 259.382812 183.800781 C 259.382812 183.800781 262.507812 185.214844 265.847656 184.800781 " fill-opacity="1" fill-rule="nonzero"/><path fill="#ff6161" d="M 250.242188 179.324219 C 250.125 178.324219 250.164062 177.367188 250.265625 176.429688 C 250.453125 174.644531 250.285156 171.832031 247.308594 172.066406 C 242.972656 172.410156 242.527344 182.117188 247.1875 184.613281 C 250.644531 186.46875 250.53125 181.832031 250.242188 179.324219 " fill-opacity="1" fill-rule="nonzero"/><path fill="#ad263d" d="M 409.039062 235.738281 C 408.222656 235.351562 407.34375 235.058594 406.441406 234.804688 C 398.871094 235.375 391.003906 249.765625 381.894531 255.742188 C 370.1875 263.417969 366.652344 272.078125 349.703125 276.34375 C 332.753906 280.605469 317.253906 288.957031 292.78125 288.75 C 268.300781 288.542969 268.667969 279.464844 258.324219 264.546875 C 247.980469 249.625 247.847656 258.289062 226.867188 246.742188 C 215.945312 240.734375 212.886719 231.8125 212.457031 224.636719 C 210.9375 228.351562 209.945312 232.890625 209.828125 238.296875 C 209.015625 275.699219 269.171875 309.957031 307.566406 309.152344 C 345.953125 308.347656 431.6875 246.324219 409.039062 235.738281 " fill-opacity="1" fill-rule="nonzero"/><path fill="#ff6161" d="M 400.195312 235.84375 C 400.195312 235.84375 412.175781 228.046875 418.710938 227.859375 C 425.246094 227.683594 438.355469 240.894531 435.992188 242.683594 C 432.324219 245.460938 427.421875 235.664062 423.796875 235.84375 C 420.164062 236.027344 422.410156 240 427.421875 241.832031 C 432.886719 243.828125 429.921875 247.359375 427.019531 246.273438 C 424.113281 245.179688 420.421875 244.007812 416.484375 244.550781 C 412.539062 245.097656 404.914062 250.523438 400.195312 247.71875 C 395.472656 244.914062 400.195312 235.84375 400.195312 235.84375 " fill-opacity="1" fill-rule="nonzero"/><path fill="#c3d4d8" d="M 656.855469 192.136719 C 654.550781 191.742188 652.574219 191.703125 650.828125 191.925781 C 655.054688 197.601562 659.96875 206.789062 663.066406 221.050781 C 667.175781 239.992188 666.773438 259.851562 666.425781 272.871094 C 675.664062 273.808594 687.714844 271.152344 693.488281 269.667969 C 693.191406 233.601562 669.65625 194.335938 656.855469 192.136719 " fill-opacity="1" fill-rule="nonzero"/></svg>